<?xml version="1.0" encoding="UTF-8" standalone="no"?>
<!DOCTYPE svg PUBLIC "-//W3C//DTD SVG 1.1//EN" "http://www.w3.org/Graphics/SVG/1.1/DTD/svg11.dtd">
<svg xmlns="http://www.w3.org/2000/svg" version="1.1" viewBox="0.00 0.00 2651.00 791.00">
<g stroke-width="2.00" fill="none" stroke-linecap="butt">
<path stroke="#c9d998" vector-effect="non-scaling-stroke" d="
  M 452.70 333.24
  Q 451.74 333.82 452.34 333.33"
/>
<path stroke="#75a987" vector-effect="non-scaling-stroke" d="
  M 452.34 333.33
  L 363.60 299.52
  Q 363.11 299.34 362.70 299.67
  L 289.91 358.47
  A 0.97 0.97 0.0 0 1 288.55 358.33
  L 230.27 286.04
  A 2.67 2.64 65.9 0 0 227.79 285.08
  L 135.24 299.65"
/>
<path stroke="#9caf6b" vector-effect="non-scaling-stroke" d="
  M 452.34 333.33
  Q 451.06 334.15 451.17 335.17
  A 1.16 1.10 -39.6 0 1 451.10 335.74
  L 418.06 421.38
  A 2.71 2.71 0.0 0 1 415.81 423.10
  Q 409.29 423.76 402.42 425.00
  Q 397.96 425.81 393.81 426.23
  Q 389.89 426.64 385.53 427.65
  Q 381.64 428.55 377.44 428.84
  Q 374.76 429.03 372.19 429.65
  C 367.79 430.69 363.15 430.86 358.74 431.76
  Q 353.85 432.76 348.29 433.39
  Q 343.97 433.89 339.71 434.76
  Q 334.10 435.92 329.10 436.19
  C 327.31 436.29 326.10 437.32 324.30 437.06
  A 1.09 1.09 0.0 0 0 323.06 438.28
  Q 323.39 440.93 323.93 443.92
  Q 324.51 447.15 324.66 450.75
  Q 324.68 451.25 324.96 451.66
  Q 325.36 452.27 325.17 452.99
  Q 325.03 453.49 325.18 453.99
  C 325.52 455.06 325.91 455.88 326.03 457.03
  Q 326.79 464.07 328.03 470.84
  Q 328.90 475.67 329.51 480.63
  C 329.95 484.23 330.92 487.80 331.34 491.45
  Q 331.81 495.49 332.48 499.44
  Q 333.71 506.71 334.72 514.59
  C 334.84 515.48 335.32 516.27 335.43 517.14
  Q 336.32 524.33 337.44 531.50
  Q 337.52 532.02 337.11 532.35
  L 263.06 592.41"
/>
</g>
<path fill="#000000" d="
  M 1227.61 85.38
  C 1203.61 114.78 1193.90 152.57 1191.63 189.99
  C 1187.95 250.74 1200.23 311.30 1247.81 352.55
  C 1273.05 374.43 1304.37 383.88 1337.80 383.19
  Q 1397.78 381.96 1444.83 342.85
  Q 1459.04 331.03 1470.30 317.86
  A 0.73 0.73 0.0 0 1 1471.23 317.71
  L 1476.74 321.11
  Q 1477.27 321.43 1477.20 322.05
  L 1470.83 378.07
  Q 1470.77 378.59 1470.31 378.83
  C 1420.59 405.72 1364.63 416.94 1307.45 414.66
  C 1253.35 412.50 1203.26 394.21 1164.38 356.47
  C 1117.34 310.81 1104.38 245.99 1111.90 182.47
  Q 1114.77 158.24 1122.57 136.14
  C 1139.79 87.38 1177.20 48.48 1224.34 27.86
  C 1242.13 20.08 1261.28 14.43 1280.54 11.19
  C 1347.24 -0.03 1416.66 7.62 1478.73 35.04
  Q 1479.03 35.17 1478.93 35.48
  L 1461.53 90.99
  Q 1461.30 91.73 1460.51 91.73
  L 1456.04 91.72
  Q 1455.37 91.72 1455.07 91.13
  C 1438.93 60.11 1409.00 44.76 1375.09 39.78
  Q 1348.10 35.81 1320.33 38.55
  C 1283.91 42.15 1250.93 56.82 1227.61 85.38
  Z"
/>
<path fill="#000000" d="
  M 727.37 369.31
  Q 774.93 369.68 824.84 368.01
  Q 849.88 367.17 874.00 364.37
  Q 874.58 364.30 874.43 364.87
  Q 868.88 385.97 874.31 406.35
  Q 874.47 406.93 873.87 406.91
  Q 825.14 404.86 775.91 403.62
  Q 765.64 403.36 755.89 403.43
  Q 702.99 403.82 649.20 406.91
  A 0.57 0.57 0.0 0 1 648.60 406.32
  Q 650.72 332.78 652.60 260.76
  Q 652.85 251.51 652.83 240.75
  Q 652.78 198.91 652.77 158.50
  Q 652.77 148.13 652.54 138.52
  Q 651.00 74.55 648.77 11.58
  Q 648.75 11.05 649.27 11.14
  Q 689.80 17.70 730.28 10.91
  A 0.52 0.52 0.0 0 1 730.89 11.45
  Q 724.92 135.57 725.03 258.71
  Q 725.06 289.57 726.80 368.75
  Q 726.82 369.31 727.37 369.31
  Z"
/>
<path fill="#000000" d="
  M 1027.65 406.90
  Q 1022.67 406.85 1017.54 406.19
  C 1001.86 404.17 988.41 402.49 973.33 404.30
  Q 959.01 406.01 944.83 406.99
  Q 944.50 407.01 944.53 406.69
  Q 948.19 359.25 949.32 305.06
  Q 951.57 197.78 950.58 111.49
  Q 950.00 61.52 945.05 11.38
  Q 945.01 10.92 945.46 10.97
  Q 957.26 12.11 970.16 13.33
  Q 984.35 14.68 993.89 14.17
  Q 1010.08 13.32 1028.45 10.91
  A 0.39 0.38 0.5 0 1 1028.88 11.34
  Q 1026.81 26.55 1025.85 43.50
  Q 1024.06 74.86 1023.47 104.47
  Q 1021.63 197.48 1023.07 290.50
  C 1023.67 329.36 1024.84 368.56 1028.26 406.24
  A 0.61 0.61 0.0 0 1 1027.65 406.90
  Z"
/>
<path fill="#000000" d="
  M 1818.76 175.44
  A 0.39 0.38 89.2 0 0 1819.13 175.05
  Q 1818.93 130.25 1818.11 85.51
  C 1817.65 60.70 1816.28 35.69 1814.98 11.54
  Q 1814.94 10.86 1815.62 10.93
  Q 1833.73 12.90 1851.90 14.16
  Q 1857.43 14.55 1862.44 14.20
  Q 1880.22 12.99 1899.14 10.90
  A 0.30 0.30 0.0 0 1 1899.47 11.23
  C 1896.04 41.10 1894.40 73.08 1893.53 102.02
  Q 1890.78 193.89 1891.34 289.48
  C 1891.57 328.17 1892.50 367.83 1897.02 406.53
  A 0.26 0.26 0.0 0 1 1896.74 406.82
  Q 1879.14 405.49 1859.96 403.83
  Q 1853.62 403.28 1848.11 403.78
  Q 1831.78 405.24 1814.31 406.84
  A 0.42 0.42 0.0 0 1 1813.85 406.40
  Q 1816.26 362.71 1818.07 317.33
  Q 1818.47 307.52 1818.55 297.06
  Q 1818.88 255.54 1819.09 212.82
  Q 1819.09 212.37 1818.63 212.35
  C 1777.80 210.81 1736.80 209.52 1695.97 210.32
  Q 1660.13 211.02 1622.70 212.35
  Q 1622.26 212.36 1622.25 212.81
  Q 1622.01 254.68 1622.35 293.75
  Q 1622.84 347.90 1627.44 406.38
  A 0.52 0.52 0.0 0 1 1626.86 406.94
  Q 1612.66 405.28 1597.28 403.90
  C 1593.08 403.52 1588.64 403.28 1584.30 403.64
  Q 1563.84 405.35 1545.17 406.84
  Q 1544.74 406.88 1544.76 406.44
  C 1548.60 328.79 1549.82 250.25 1549.95 173.25
  Q 1549.96 163.72 1550.02 153.26
  Q 1550.42 81.37 1544.19 11.40
  Q 1544.14 10.87 1544.67 10.92
  Q 1560.18 12.54 1578.16 13.92
  C 1594.26 15.15 1610.90 13.40 1626.77 10.97
  Q 1627.44 10.87 1627.38 11.54
  C 1622.92 65.14 1622.08 120.10 1622.20 175.02
  Q 1622.20 175.40 1622.59 175.42
  Q 1655.64 176.76 1685.00 177.38
  C 1729.30 178.32 1774.31 176.83 1818.76 175.44
  Z"
/>
<path fill="#000000" d="
  M 2072.25 47.45
  L 2072.25 181.99
  Q 2072.25 182.29 2072.55 182.29
  Q 2118.14 182.44 2160.35 180.96
  Q 2178.74 180.32 2199.29 178.41
  Q 2200.01 178.34 2199.81 179.04
  Q 2195.77 193.43 2197.62 209.13
  Q 2198.17 213.83 2199.83 218.25
  Q 2199.97 218.63 2199.57 218.60
  Q 2136.65 214.40 2072.80 214.74
  Q 2072.25 214.74 2072.25 215.29
  L 2072.25 370.73
  A 0.43 0.43 0.0 0 0 2072.68 371.16
  Q 2142.19 370.60 2212.87 367.02
  Q 2213.57 366.99 2213.32 367.64
  Q 2211.98 371.23 2211.58 373.88
  Q 2208.96 391.14 2213.39 406.61
  A 0.18 0.18 0.0 0 1 2213.20 406.84
  C 2140.33 402.24 2067.63 402.56 1994.81 406.84
  Q 1994.16 406.88 1994.19 406.23
  C 1997.98 325.01 2000.00 245.38 1999.34 162.26
  Q 1998.68 79.34 1994.30 11.51
  Q 1994.26 10.92 1994.85 10.95
  C 2039.86 13.51 2085.18 15.29 2130.54 13.81
  Q 2169.00 12.55 2209.48 10.89
  Q 2210.13 10.87 2209.96 11.50
  C 2206.36 24.48 2206.03 37.64 2209.85 50.45
  Q 2209.95 50.77 2209.61 50.75
  Q 2180.23 49.06 2152.02 47.79
  Q 2120.00 46.36 2072.88 46.81
  Q 2072.25 46.81 2072.25 47.45
  Z"
/>
<path fill="#000000" d="
  M 2331.12 132.97
  A 0.25 0.24 21.1 0 0 2330.71 133.15
  Q 2330.72 218.06 2332.31 305.75
  Q 2333.16 352.20 2337.86 406.32
  A 0.53 0.52 1.4 0 1 2337.27 406.88
  C 2328.45 405.77 2318.82 403.36 2310.12 403.49
  C 2302.83 403.60 2295.49 405.00 2288.21 406.73
  Q 2287.50 406.90 2287.54 406.16
  Q 2290.29 361.18 2292.41 323.27
  Q 2293.90 296.53 2294.00 259.16
  Q 2294.34 140.72 2292.87 11.40
  A 0.50 0.50 0.0 0 1 2293.44 10.90
  Q 2300.58 12.01 2307.63 12.00
  C 2311.78 12.00 2315.95 11.36 2320.09 10.99
  A 1.14 1.12 65.2 0 1 2321.01 11.34
  Q 2394.27 89.94 2471.35 164.58
  Q 2516.53 208.32 2564.60 254.33
  C 2575.98 265.21 2587.81 274.85 2599.92 284.67
  A 0.29 0.29 0.0 0 0 2600.39 284.45
  Q 2600.42 216.21 2600.36 153.27
  Q 2600.30 91.66 2593.31 11.62
  Q 2593.25 10.87 2593.97 11.05
  C 2600.54 12.62 2607.33 13.83 2613.97 14.20
  Q 2627.58 14.97 2642.98 10.98
  A 0.39 0.39 0.0 0 1 2643.47 11.38
  C 2637.36 97.90 2636.27 184.37 2637.58 271.03
  C 2638.07 303.48 2637.48 335.96 2637.92 364.04
  Q 2638.40 394.44 2638.22 409.20
  Q 2638.21 409.91 2637.52 409.77
  Q 2626.73 407.62 2614.85 409.72
  A 1.61 1.61 0.0 0 1 2613.38 409.23
  Q 2476.56 263.57 2331.12 132.97
  Z"
/>
<path fill="#a2d3b4" d="
  M 452.70 333.24
  Q 451.74 333.82 452.34 333.33
  L 363.60 299.52
  Q 363.11 299.34 362.70 299.67
  L 289.91 358.47
  A 0.97 0.97 0.0 0 1 288.55 358.33
  L 230.27 286.04
  A 2.67 2.64 65.9 0 0 227.79 285.08
  L 135.24 299.65
  L 120.10 202.98
  Q 120.02 202.48 120.36 202.11
  Q 121.97 200.35 124.24 198.52
  Q 196.72 140.17 268.73 81.73
  Q 268.87 81.62 269.04 81.67
  Q 272.91 82.92 276.46 84.35
  Q 284.03 87.38 290.99 90.02
  Q 318.34 100.40 342.30 109.78
  C 345.72 111.11 349.15 112.02 352.41 113.72
  Q 355.62 115.39 356.75 111.80
  C 357.81 108.44 358.88 105.06 360.35 101.86
  C 362.46 97.23 363.99 92.42 365.88 87.55
  Q 377.32 58.04 388.50 28.95
  Q 388.78 28.21 389.57 28.09
  L 486.23 12.86
  A 0.46 0.46 0.0 0 1 486.75 13.24
  L 501.81 109.81
  A 1.06 1.03 66.8 0 1 501.44 110.78
  L 431.33 167.55
  A 2.16 2.15 50.9 0 0 431.02 170.59
  Q 457.13 202.78 484.63 237.10
  Q 486.07 238.90 487.49 240.84
  A 0.95 0.94 -53.0 0 1 487.61 241.73
  Q 476.96 269.63 464.86 300.70
  Q 463.60 303.92 462.51 307.08
  C 461.33 310.49 459.70 313.64 458.54 317.03
  Q 455.89 324.79 452.50 332.26
  Q 452.30 332.71 452.70 333.24
  Z"
/>
<path fill="#487f59" d="
  M 452.34 333.33
  Q 451.06 334.15 451.17 335.17
  A 1.16 1.10 -39.6 0 1 451.10 335.74
  L 418.06 421.38
  A 2.71 2.71 0.0 0 1 415.81 423.10
  Q 409.29 423.76 402.42 425.00
  Q 397.96 425.81 393.81 426.23
  Q 389.89 426.64 385.53 427.65
  Q 381.64 428.55 377.44 428.84
  Q 374.76 429.03 372.19 429.65
  C 367.79 430.69 363.15 430.86 358.74 431.76
  Q 353.85 432.76 348.29 433.39
  Q 343.97 433.89 339.71 434.76
  Q 334.10 435.92 329.10 436.19
  C 327.31 436.29 326.10 437.32 324.30 437.06
  A 1.09 1.09 0.0 0 0 323.06 438.28
  Q 323.39 440.93 323.93 443.92
  Q 324.51 447.15 324.66 450.75
  Q 324.68 451.25 324.96 451.66
  Q 325.36 452.27 325.17 452.99
  Q 325.03 453.49 325.18 453.99
  C 325.52 455.06 325.91 455.88 326.03 457.03
  Q 326.79 464.07 328.03 470.84
  Q 328.90 475.67 329.51 480.63
  C 329.95 484.23 330.92 487.80 331.34 491.45
  Q 331.81 495.49 332.48 499.44
  Q 333.71 506.71 334.72 514.59
  C 334.84 515.48 335.32 516.27 335.43 517.14
  Q 336.32 524.33 337.44 531.50
  Q 337.52 532.02 337.11 532.35
  L 263.06 592.41
  Q 237.69 561.09 212.32 529.43
  Q 209.35 525.74 206.03 522.03
  C 204.93 520.81 204.35 518.53 202.23 519.28
  Q 201.15 519.65 200.03 519.79
  Q 191.89 520.80 189.75 521.19
  Q 179.98 522.96 176.34 523.35
  Q 174.87 523.50 171.85 524.13
  C 167.73 525.00 163.60 525.18 159.40 526.00
  Q 155.15 526.82 151.47 527.30
  C 145.55 528.06 139.64 529.37 133.88 530.04
  C 130.24 530.46 126.65 531.37 123.04 531.85
  Q 117.08 532.66 110.70 533.59
  A 0.81 0.81 0.0 0 1 109.77 532.76
  C 109.83 530.96 109.14 529.45 108.93 527.64
  Q 108.24 521.56 107.09 514.72
  Q 106.25 509.78 105.44 504.77
  Q 102.74 488.11 100.81 474.00
  C 100.44 471.30 99.58 468.71 99.24 465.94
  C 98.26 457.80 96.75 449.79 95.79 441.58
  A 2.61 2.60 -82.7 0 0 94.15 439.45
  Q 52.16 423.31 10.48 407.24
  Q 9.28 406.78 7.87 406.51
  A 1.12 1.12 0.0 0 1 7.03 405.01
  L 41.89 314.69
  A 1.53 1.53 0.0 0 1 43.01 313.74
  Q 47.75 312.77 52.39 312.28
  C 57.32 311.75 62.03 310.38 66.98 309.95
  Q 69.72 309.71 72.41 309.19
  Q 76.78 308.34 77.78 308.19
  Q 91.48 306.11 105.18 304.04
  C 106.40 303.86 107.34 303.29 108.50 303.20
  Q 113.07 302.87 117.69 301.97
  Q 122.05 301.12 125.86 300.64
  Q 130.55 300.05 135.24 299.65
  L 227.79 285.08
  A 2.67 2.64 65.9 0 1 230.27 286.04
  L 288.55 358.33
  A 0.97 0.97 0.0 0 0 289.91 358.47
  L 362.70 299.67
  Q 363.11 299.34 363.60 299.52
  L 452.34 333.33
  Z"
/>
<path fill="#efde7c" d="
  M 452.70 333.24
  L 544.14 368.77
  A 1.50 1.49 7.6 0 1 545.08 369.99
  C 545.33 372.15 545.96 374.18 546.17 376.36
  C 546.77 382.64 548.27 388.65 548.93 394.82
  C 549.34 398.75 550.29 402.55 550.86 406.41
  Q 552.81 419.58 554.84 433.07
  C 554.99 434.13 555.59 435.23 555.68 436.32
  C 556.17 442.48 557.49 448.16 558.20 453.94
  C 558.90 459.68 560.03 465.18 560.88 470.97
  Q 562.42 481.44 564.21 492.13
  Q 565.04 497.13 565.62 501.90
  C 566.15 506.35 567.24 510.57 567.83 514.89
  Q 569.39 526.18 571.35 537.78
  Q 572.24 543.07 572.95 548.20
  Q 573.67 553.45 574.92 558.59
  A 1.11 1.09 62.8 0 1 574.59 559.66
  Q 572.41 561.65 570.31 563.35
  Q 537.44 590.03 503.53 617.33
  A 1.50 1.49 51.1 0 0 503.31 619.44
  L 560.17 689.93
  Q 560.95 690.90 560.50 692.05
  L 525.22 783.54
  A 0.63 0.63 0.0 0 1 524.40 783.90
  Q 482.24 767.53 436.88 750.03
  Q 434.61 749.15 432.59 748.09
  Q 432.22 747.89 432.13 747.47
  C 430.67 739.87 429.76 732.24 428.45 724.57
  Q 426.83 715.09 425.65 706.61
  Q 424.96 701.69 424.10 696.92
  Q 423.22 692.09 422.59 687.24
  Q 422.13 683.72 421.42 680.06
  C 420.53 675.41 420.32 670.67 419.24 665.92
  Q 418.41 662.29 418.16 658.68
  C 417.85 654.31 413.66 656.61 411.42 656.86
  Q 407.64 657.30 403.64 657.94
  Q 384.07 661.05 367.03 663.68
  Q 357.16 665.21 347.27 666.82
  Q 336.46 668.58 325.78 669.90
  Q 325.28 669.96 324.97 669.57
  L 263.06 592.41
  L 337.11 532.35
  Q 337.52 532.02 337.44 531.50
  Q 336.32 524.33 335.43 517.14
  C 335.32 516.27 334.84 515.48 334.72 514.59
  Q 333.71 506.71 332.48 499.44
  Q 331.81 495.49 331.34 491.45
  C 330.92 487.80 329.95 484.23 329.51 480.63
  Q 328.90 475.67 328.03 470.84
  Q 326.79 464.07 326.03 457.03
  C 325.91 455.88 325.52 455.06 325.18 453.99
  Q 325.03 453.49 325.17 452.99
  Q 325.36 452.27 324.96 451.66
  Q 324.68 451.25 324.66 450.75
  Q 324.51 447.15 323.93 443.92
  Q 323.39 440.93 323.06 438.28
  A 1.09 1.09 0.0 0 1 324.30 437.06
  C 326.10 437.32 327.31 436.29 329.10 436.19
  Q 334.10 435.92 339.71 434.76
  Q 343.97 433.89 348.29 433.39
  Q 353.85 432.76 358.74 431.76
  C 363.15 430.86 367.79 430.69 372.19 429.65
  Q 374.76 429.03 377.44 428.84
  Q 381.64 428.55 385.53 427.65
  Q 389.89 426.64 393.81 426.23
  Q 397.96 425.81 402.42 425.00
  Q 409.29 423.76 415.81 423.10
  A 2.71 2.71 0.0 0 0 418.06 421.38
  L 451.10 335.74
  A 1.16 1.10 -39.6 0 0 451.17 335.17
  Q 451.06 334.15 452.34 333.33
  Q 451.74 333.82 452.70 333.24
  Z"
/>
<path fill="#000000" d="
  M 1987.64 751.31
  Q 1973.44 777.05 1944.22 782.49
  C 1924.78 786.12 1905.06 781.02 1889.67 768.41
  C 1870.42 752.65 1861.73 729.89 1860.27 705.17
  C 1858.64 677.52 1864.02 649.64 1882.65 629.25
  C 1895.87 614.78 1912.87 607.17 1932.84 606.78
  C 1955.01 606.34 1978.36 616.20 1987.19 637.92
  Q 1987.58 638.87 1987.59 637.85
  Q 1988.40 577.54 1986.45 522.11
  A 0.26 0.26 0.0 0 1 1986.77 521.84
  Q 2003.00 525.79 2019.87 521.77
  A 0.59 0.58 84.4 0 1 2020.59 522.37
  C 2016.81 601.00 2016.81 689.25 2018.30 777.98
  Q 2018.32 778.65 2017.67 778.50
  Q 2014.77 777.85 2011.61 777.33
  C 2003.21 775.94 1995.58 776.75 1987.65 778.50
  Q 1986.99 778.65 1987.03 777.98
  Q 1987.95 764.42 1987.99 751.40
  Q 1987.99 750.67 1987.64 751.31
  Z
  M 1938.92 624.54
  C 1901.45 625.52 1894.04 661.54 1893.67 691.45
  C 1893.50 705.33 1894.57 718.66 1898.71 731.79
  C 1903.38 746.58 1913.30 760.77 1928.61 764.92
  Q 1938.03 767.47 1949.61 765.03
  C 1982.46 758.11 1988.61 720.32 1988.63 692.48
  C 1988.64 674.26 1986.40 656.79 1975.36 642.05
  Q 1961.79 623.94 1938.92 624.54
  Z"
/>
<ellipse fill="#000000" cx="0.00" cy="0.00" transform="translate(2290.69,552.55) rotate(90.6)" rx="18.99" ry="17.81"/>
<ellipse fill="#000000" cx="0.00" cy="0.00" transform="translate(2091.26,552.80) rotate(90.5)" rx="18.99" ry="17.80"/>
<path fill="#000000" d="
  M 766.00 552.07
  C 739.08 553.83 717.43 567.09 703.17 590.55
  Q 695.08 603.86 691.48 618.53
  Q 682.52 655.06 689.84 692.18
  C 697.55 731.28 725.86 764.15 766.67 767.24
  Q 817.67 771.11 848.73 732.29
  Q 849.21 731.69 849.91 732.01
  L 852.42 733.14
  Q 853.11 733.45 852.96 734.20
  Q 850.30 747.04 849.53 761.05
  Q 849.49 761.73 848.90 762.09
  Q 834.79 770.71 821.72 775.37
  Q 786.79 787.81 748.32 783.08
  C 723.27 780.00 700.99 769.69 683.43 752.11
  C 663.15 731.80 652.43 705.86 649.61 677.36
  C 646.90 650.07 650.01 620.22 663.20 595.78
  C 686.03 553.44 727.10 536.92 773.76 536.87
  Q 815.55 536.83 854.08 555.10
  A 0.41 0.41 0.0 0 1 854.29 555.61
  Q 848.60 571.52 846.62 589.34
  Q 846.54 590.03 845.84 590.03
  L 844.12 590.04
  Q 843.31 590.04 842.97 589.31
  C 836.71 576.03 824.84 567.11 811.49 560.63
  Q 790.55 550.46 766.00 552.07
  Z"
/>
<path fill="#000000" d="
  M 2169.19 628.52
  Q 2167.30 628.36 2165.30 628.46
  Q 2154.71 629.00 2144.30 629.78
  Q 2143.63 629.84 2143.72 629.16
  Q 2144.85 620.93 2143.68 613.09
  Q 2143.57 612.40 2144.27 612.49
  Q 2156.28 614.08 2169.22 614.13
  A 0.53 0.52 0.0 0 0 2169.75 613.61
  Q 2169.80 594.67 2169.12 576.13
  Q 2169.10 575.62 2169.59 575.48
  C 2181.16 572.18 2191.76 566.08 2201.90 559.74
  A 0.31 0.30 -14.5 0 1 2202.37 560.01
  Q 2200.73 587.03 2200.14 613.70
  A 0.38 0.37 0.7 0 0 2200.52 614.08
  Q 2217.53 614.01 2234.70 612.36
  Q 2235.44 612.29 2235.33 613.02
  Q 2234.19 620.93 2235.31 628.66
  Q 2235.40 629.30 2234.76 629.28
  L 2200.60 628.27
  Q 2200.09 628.25 2200.08 628.75
  Q 2198.27 678.56 2198.52 726.71
  Q 2198.58 739.55 2200.82 749.40
  C 2203.38 760.70 2210.14 768.17 2222.68 767.08
  Q 2228.46 766.58 2235.58 765.19
  Q 2236.37 765.04 2236.28 765.84
  Q 2235.81 769.94 2236.29 774.23
  Q 2236.38 774.97 2235.72 775.33
  C 2222.97 782.23 2202.80 784.39 2189.21 776.94
  C 2180.88 772.38 2172.95 762.91 2171.09 753.11
  Q 2168.98 741.98 2169.17 731.00
  Q 2170.09 680.03 2169.69 629.06
  Q 2169.69 628.56 2169.19 628.52
  Z"
/>
<path fill="#000000" d="
  M 2644.19 731.03
  C 2642.81 751.91 2630.99 768.98 2611.83 777.25
  C 2600.87 781.99 2588.50 783.19 2576.39 782.66
  C 2560.94 781.98 2545.83 777.81 2533.85 768.58
  Q 2533.45 768.28 2533.65 767.82
  Q 2538.92 755.58 2540.70 741.07
  Q 2540.79 740.35 2541.49 740.18
  L 2544.21 739.49
  Q 2544.79 739.34 2545.01 739.91
  Q 2549.73 752.16 2556.94 758.23
  Q 2573.62 772.26 2596.00 767.76
  Q 2605.25 765.90 2612.16 759.20
  C 2622.90 748.79 2621.59 726.27 2608.04 718.61
  C 2596.44 712.04 2581.97 707.80 2569.39 703.09
  C 2553.16 697.02 2539.70 684.57 2537.27 666.82
  C 2533.28 637.54 2549.90 612.59 2579.36 607.80
  Q 2608.63 603.04 2635.77 617.84
  A 0.58 0.57 24.7 0 1 2636.03 618.54
  Q 2631.11 632.37 2629.72 646.66
  Q 2629.66 647.30 2629.02 647.30
  L 2625.96 647.32
  A 0.83 0.82 84.5 0 1 2625.15 646.65
  C 2622.78 634.21 2614.46 624.80 2602.44 621.83
  C 2584.22 617.32 2561.13 623.92 2561.13 646.83
  C 2561.13 662.68 2573.60 671.85 2587.89 676.08
  C 2599.86 679.63 2610.90 682.73 2622.11 687.91
  C 2639.65 696.02 2645.40 712.83 2644.19 731.03
  Z"
/>
<path fill="#000000" d="
  M 2383.93 694.14
  Q 2383.74 709.87 2386.96 723.99
  C 2391.29 742.97 2404.98 759.67 2423.87 764.48
  Q 2433.13 766.84 2443.51 766.08
  Q 2472.60 763.95 2489.89 738.57
  Q 2490.29 737.98 2490.98 738.17
  L 2493.37 738.83
  Q 2494.16 739.05 2494.01 739.85
  Q 2492.33 749.17 2492.01 759.10
  A 1.88 1.88 0.0 0 1 2491.46 760.38
  C 2472.69 779.21 2445.05 784.95 2419.05 781.95
  Q 2379.60 777.40 2361.48 743.41
  C 2352.52 726.58 2350.25 705.46 2351.57 686.02
  C 2354.19 647.38 2375.28 613.51 2416.39 608.09
  C 2434.07 605.76 2454.25 607.52 2469.74 616.57
  C 2495.88 631.85 2501.89 664.98 2501.00 692.95
  Q 2500.99 693.46 2500.48 693.46
  L 2384.52 693.55
  Q 2383.93 693.55 2383.93 694.14
  Z
  M 2438.24 622.03
  C 2399.45 615.49 2386.84 647.23 2384.24 678.66
  Q 2384.21 678.99 2384.55 678.99
  L 2468.00 678.83
  Q 2468.35 678.83 2468.35 678.49
  C 2468.83 657.64 2463.70 626.32 2438.24 622.03
  Z"
/>
<path fill="#000000" d="
  M 1828.96 712.20
  C 1823.36 750.54 1795.79 778.48 1757.11 783.12
  C 1741.50 784.99 1724.01 783.54 1709.24 777.50
  C 1672.12 762.30 1660.58 727.83 1662.01 690.16
  Q 1662.58 674.91 1667.03 661.36
  C 1675.80 634.63 1697.47 615.11 1725.06 609.63
  Q 1743.10 606.05 1762.56 609.00
  Q 1803.38 615.20 1821.41 651.15
  C 1830.43 669.13 1831.92 691.89 1828.96 712.20
  Z
  M 1735.98 622.66
  C 1695.81 630.45 1692.36 684.53 1696.56 715.96
  C 1700.38 744.51 1716.24 772.49 1749.62 769.71
  C 1775.60 767.54 1789.99 744.21 1794.65 720.84
  C 1800.75 690.22 1797.59 631.09 1757.73 622.79
  Q 1746.90 620.54 1735.98 622.66
  Z"
/>
<path fill="#000000" d="
  M 1413.20 638.81
  A 0.29 0.29 0.0 0 0 1413.74 638.95
  C 1426.17 617.49 1445.56 606.09 1471.41 608.81
  Q 1501.10 611.93 1511.78 639.00
  Q 1512.02 639.62 1512.37 639.06
  Q 1513.12 637.83 1513.90 636.56
  Q 1528.05 613.49 1553.76 609.27
  C 1580.17 604.94 1608.36 613.80 1615.62 642.40
  Q 1617.93 651.51 1617.82 659.50
  Q 1617.37 692.02 1617.25 722.91
  C 1617.18 741.34 1618.23 760.40 1619.10 778.42
  Q 1619.13 779.15 1618.42 779.00
  C 1607.27 776.75 1596.86 776.28 1585.72 779.08
  A 0.39 0.39 0.0 0 1 1585.24 778.67
  C 1588.16 743.75 1588.56 709.00 1588.06 673.48
  Q 1587.89 661.13 1584.41 650.01
  C 1578.97 632.67 1563.63 626.23 1546.60 629.63
  C 1522.40 634.46 1516.27 662.25 1515.63 683.07
  Q 1515.09 700.47 1515.59 718.25
  Q 1516.37 746.53 1517.94 778.74
  A 0.37 0.37 0.0 0 1 1517.49 779.12
  Q 1500.80 775.25 1484.62 779.03
  Q 1484.07 779.16 1484.11 778.60
  Q 1487.32 735.39 1486.45 689.19
  Q 1486.17 674.44 1484.50 660.39
  Q 1483.98 656.04 1482.92 651.66
  C 1479.82 638.88 1471.08 630.78 1457.51 629.27
  Q 1434.50 626.70 1422.74 645.94
  C 1414.89 658.77 1414.42 674.19 1414.06 689.51
  Q 1412.97 735.96 1416.64 778.71
  Q 1416.70 779.41 1416.01 779.26
  C 1407.80 777.46 1399.61 776.73 1391.19 777.98
  Q 1387.17 778.58 1383.47 779.28
  Q 1382.77 779.41 1382.79 778.70
  Q 1385.06 710.86 1384.72 690.72
  Q 1384.05 650.68 1382.47 610.02
  A 0.40 0.40 0.0 0 1 1382.93 609.61
  Q 1390.16 610.69 1397.35 611.50
  Q 1399.19 611.71 1401.09 611.45
  Q 1408.14 610.46 1414.52 609.62
  Q 1415.15 609.54 1415.07 610.18
  Q 1413.15 624.16 1413.20 638.81
  Z"
/>
<path fill="#000000" d="
  M 1044.67 731.28
  C 1035.95 755.53 1016.52 774.07 991.92 781.20
  C 971.67 787.06 946.15 786.07 926.83 777.36
  C 899.80 765.17 886.32 741.89 883.05 713.21
  C 880.11 687.43 883.53 660.30 899.04 639.62
  C 912.43 621.77 931.85 611.43 954.44 609.24
  Q 972.46 607.49 989.25 611.15
  C 1017.01 617.21 1037.71 636.49 1046.10 663.28
  C 1052.61 684.09 1052.13 710.53 1044.67 731.28
  Z
  M 962.50 622.79
  C 917.13 626.25 912.34 682.07 916.70 716.09
  C 918.86 732.98 924.77 749.72 937.43 760.81
  C 951.23 772.91 971.71 773.82 987.25 765.40
  C 995.80 760.77 1002.84 752.33 1007.38 743.56
  C 1015.85 727.20 1017.94 707.96 1017.12 689.23
  C 1015.69 656.60 1002.93 619.70 962.50 622.79
  Z"
/>
<path fill="#000000" d="
  M 1123.57 639.26
  C 1133.36 622.70 1147.62 611.19 1166.81 609.12
  C 1176.42 608.08 1187.20 609.16 1196.08 612.67
  Q 1213.68 619.63 1221.55 639.19
  Q 1221.91 640.06 1222.38 639.24
  C 1236.47 614.42 1260.77 605.26 1287.91 609.62
  C 1314.37 613.87 1327.98 634.27 1327.64 660.19
  Q 1327.28 687.86 1327.08 718.38
  Q 1326.93 742.19 1329.00 778.77
  Q 1329.04 779.48 1328.34 779.34
  C 1317.09 777.22 1307.06 776.67 1295.68 779.38
  Q 1295.03 779.54 1295.08 778.87
  C 1297.98 744.02 1298.15 709.12 1297.90 674.24
  Q 1297.83 664.03 1295.12 653.24
  C 1292.16 641.44 1284.68 632.26 1272.48 629.95
  C 1251.76 626.02 1236.23 636.56 1230.04 656.15
  Q 1225.64 670.05 1225.37 685.23
  C 1224.82 716.73 1226.31 748.35 1227.75 778.94
  Q 1227.79 779.61 1227.13 779.46
  Q 1210.48 775.57 1194.14 779.45
  A 0.17 0.16 84.8 0 1 1193.94 779.28
  Q 1197.46 731.66 1196.06 683.40
  Q 1195.71 671.11 1194.00 658.34
  C 1192.09 644.03 1185.36 632.97 1170.23 630.09
  C 1157.75 627.72 1145.65 630.56 1137.14 640.15
  C 1128.44 649.95 1125.07 663.04 1124.48 675.92
  Q 1122.11 727.28 1126.47 779.01
  Q 1126.53 779.74 1125.81 779.60
  Q 1122.12 778.85 1118.28 778.29
  C 1109.98 777.07 1101.41 777.85 1093.18 779.74
  A 0.42 0.42 0.0 0 1 1092.67 779.32
  Q 1093.81 744.44 1094.54 709.99
  Q 1094.75 700.23 1094.56 690.02
  Q 1093.81 649.93 1092.32 610.51
  Q 1092.30 609.94 1092.86 610.01
  C 1099.02 610.79 1106.28 612.53 1112.76 611.59
  Q 1118.81 610.71 1124.42 609.96
  A 0.42 0.42 0.0 0 1 1124.89 610.43
  Q 1122.96 625.10 1123.04 639.11
  Q 1123.04 640.15 1123.57 639.26
  Z"
/>
<path fill="#000000" d="
  M 2306.33 778.09
  Q 2289.53 774.37 2274.07 778.05
  Q 2273.54 778.18 2273.57 777.63
  C 2276.38 721.97 2276.94 665.39 2273.31 610.54
  Q 2273.27 609.93 2273.87 610.07
  Q 2289.62 613.84 2305.70 609.97
  Q 2306.16 609.86 2306.13 610.33
  Q 2304.13 654.94 2304.26 699.50
  C 2304.34 725.29 2305.54 750.99 2306.51 777.94
  Q 2306.52 778.13 2306.33 778.09
  Z"
/>
<path fill="#000000" d="
  M 2074.16 778.30
  C 2076.80 722.51 2077.51 665.48 2073.88 610.86
  Q 2073.84 610.21 2074.48 610.36
  Q 2090.50 614.04 2106.09 610.26
  Q 2106.73 610.10 2106.70 610.76
  Q 2104.40 661.74 2104.93 706.16
  Q 2105.24 731.52 2107.14 777.72
  Q 2107.17 778.38 2106.52 778.23
  Q 2090.55 774.51 2074.37 778.47
  A 0.17 0.17 0.0 0 1 2074.16 778.30
  Z"
/>
</svg>
