<?xml version="1.0" encoding="UTF-8" standalone="no"?>
<!DOCTYPE svg PUBLIC "-//W3C//DTD SVG 1.1//EN" "http://www.w3.org/Graphics/SVG/1.1/DTD/svg11.dtd">
<svg xmlns="http://www.w3.org/2000/svg" version="1.1" viewBox="0.00 0.00 2651.00 791.00">
<g stroke-width="2.00" fill="none" stroke-linecap="butt">
<path stroke="#c9d998" vector-effect="non-scaling-stroke" d="
  M 452.70 333.24
  Q 451.74 333.82 452.34 333.33"
/>
<path stroke="#75a987" vector-effect="non-scaling-stroke" d="
  M 452.34 333.33
  L 363.60 299.52
  Q 363.11 299.34 362.70 299.67
  L 289.91 358.47
  A 0.97 0.97 0.0 0 1 288.55 358.33
  L 230.34 286.14
  A 2.87 2.60 64.8 0 0 227.79 285.08
  L 135.24 299.65"
/>
<path stroke="#9caf6b" vector-effect="non-scaling-stroke" d="
  M 452.34 333.33
  Q 451.06 334.15 451.17 335.17
  A 1.16 1.10 -39.6 0 1 451.10 335.74
  L 418.05 421.39
  A 2.70 2.68 7.5 0 1 415.81 423.10
  Q 409.29 423.76 402.42 425.00
  Q 397.96 425.81 393.81 426.23
  Q 389.89 426.64 385.53 427.65
  Q 381.64 428.55 377.44 428.84
  Q 374.76 429.03 372.19 429.65
  C 367.79 430.69 363.15 430.86 358.74 431.76
  Q 353.85 432.76 348.29 433.39
  Q 343.97 433.89 339.71 434.76
  Q 334.10 435.92 329.10 436.19
  C 327.31 436.29 326.10 437.32 324.30 437.06
  A 1.09 1.09 0.0 0 0 323.06 438.28
  Q 323.39 440.93 323.93 443.92
  Q 324.51 447.15 324.66 450.75
  Q 324.68 451.25 324.96 451.66
  Q 325.36 452.27 325.17 452.99
  Q 325.03 453.49 325.18 453.99
  C 325.52 455.06 325.91 455.88 326.03 457.03
  Q 326.79 464.07 328.03 470.84
  Q 328.90 475.67 329.51 480.63
  C 329.95 484.23 330.92 487.80 331.34 491.45
  Q 331.81 495.49 332.48 499.44
  Q 333.71 506.71 334.72 514.59
  C 334.84 515.48 335.32 516.27 335.43 517.14
  Q 336.32 524.33 337.44 531.50
  Q 337.52 532.02 337.11 532.35
  L 263.06 592.41"
/>
</g>
<path fill="#ffffff" d="
  M 1455.07 91.03
  C 1435.05 52.81 1395.72 39.79 1354.45 37.71
  C 1327.69 36.37 1300.50 39.23 1276.18 49.30
  C 1223.48 71.12 1198.78 121.70 1192.80 176.19
  C 1189.30 208.17 1190.37 241.86 1198.71 272.82
  Q 1209.52 312.98 1236.53 341.79
  Q 1273.90 381.67 1329.38 383.15
  Q 1391.25 384.81 1440.30 346.55
  Q 1455.95 334.35 1470.41 317.86
  Q 1470.77 317.45 1471.23 317.73
  L 1476.72 321.14
  Q 1477.24 321.46 1477.17 322.07
  L 1470.80 378.03
  Q 1470.73 378.62 1470.21 378.90
  Q 1420.54 405.36 1364.01 412.31
  C 1319.45 417.79 1273.20 415.49 1231.97 399.66
  Q 1189.84 383.49 1159.15 351.06
  C 1129.55 319.78 1114.26 279.70 1110.86 236.70
  C 1108.31 204.36 1111.14 170.54 1121.33 139.82
  C 1138.15 89.08 1176.16 48.82 1225.01 27.60
  C 1258.34 13.12 1294.54 7.32 1331.01 6.40
  Q 1408.75 4.44 1478.52 34.93
  Q 1479.00 35.14 1478.85 35.64
  L 1461.50 90.98
  Q 1461.28 91.69 1460.52 91.70
  L 1456.18 91.71
  Q 1455.42 91.71 1455.07 91.03
  Z"
/>
<path fill="#ffffff" d="
  M 727.37 369.28
  Q 786.48 369.87 841.03 367.27
  Q 856.10 366.55 873.95 364.32
  Q 874.56 364.25 874.40 364.84
  Q 868.85 385.99 874.28 406.31
  Q 874.43 406.87 873.85 406.84
  Q 830.16 405.11 783.94 403.76
  Q 772.95 403.43 763.99 403.44
  Q 706.54 403.49 649.40 406.90
  A 0.69 0.68 88.9 0 1 648.67 406.19
  Q 650.48 338.81 652.40 272.39
  Q 652.69 262.43 652.74 252.25
  Q 653.06 183.68 652.59 148.50
  Q 651.85 92.96 648.73 11.64
  Q 648.70 11.06 649.28 11.15
  Q 690.02 17.73 730.23 10.94
  Q 730.88 10.83 730.85 11.50
  Q 724.75 139.05 725.05 260.49
  Q 725.15 301.78 726.79 368.71
  Q 726.81 369.28 727.37 369.28
  Z"
/>
<path fill="#ffffff" d="
  M 950.94 143.67
  Q 950.91 70.56 945.16 11.56
  Q 945.10 10.91 945.74 10.98
  Q 961.00 12.61 977.57 13.94
  Q 986.25 14.63 994.33 14.17
  Q 1011.57 13.20 1028.36 10.95
  Q 1028.90 10.88 1028.83 11.41
  Q 1026.76 26.79 1025.82 43.55
  Q 1023.87 78.34 1023.29 111.42
  Q 1021.65 205.21 1023.16 298.03
  C 1023.73 333.29 1024.93 370.62 1028.28 406.50
  A 0.43 0.42 90.0 0 1 1027.83 406.96
  Q 1014.86 406.04 1001.54 404.33
  Q 995.40 403.54 988.19 403.44
  C 978.64 403.32 968.87 404.74 959.15 405.82
  Q 952.69 406.54 945.07 406.83
  Q 944.50 406.85 944.55 406.29
  Q 947.58 367.55 948.69 329.14
  Q 950.97 249.69 950.94 143.67
  Z"
/>
<path fill="#ffffff" d="
  M 1622.32 212.37
  A 0.18 0.18 0.0 0 0 1622.15 212.55
  Q 1622.11 242.16 1622.13 271.82
  Q 1622.19 340.21 1627.39 406.22
  Q 1627.44 406.86 1626.80 406.80
  Q 1615.30 405.79 1603.35 404.38
  C 1596.26 403.55 1589.26 403.18 1582.13 403.78
  Q 1562.92 405.41 1545.08 406.82
  Q 1544.74 406.85 1544.76 406.51
  Q 1547.26 357.41 1548.34 308.02
  Q 1550.50 208.93 1549.90 124.49
  Q 1549.53 72.86 1544.24 11.53
  Q 1544.19 10.94 1544.78 11.00
  Q 1560.01 12.46 1575.29 13.76
  C 1592.66 15.24 1609.75 13.59 1627.02 10.97
  A 0.35 0.35 0.0 0 1 1627.42 11.35
  Q 1625.69 30.65 1624.84 48.00
  Q 1621.96 106.52 1622.18 174.79
  Q 1622.18 175.32 1622.71 175.35
  Q 1681.16 178.13 1726.33 177.63
  Q 1771.73 177.13 1818.94 175.39
  A 0.23 0.23 0.0 0 0 1819.16 175.16
  Q 1819.00 126.09 1817.97 78.75
  C 1817.48 56.37 1816.16 34.01 1815.02 11.54
  Q 1814.99 10.92 1815.62 10.98
  Q 1832.58 12.75 1848.14 13.96
  Q 1858.71 14.79 1870.77 13.68
  Q 1885.20 12.37 1898.81 11.00
  Q 1899.37 10.95 1899.31 11.51
  Q 1895.15 52.16 1893.86 91.75
  Q 1890.87 183.50 1891.29 275.29
  C 1891.45 310.57 1891.94 344.90 1894.13 377.00
  Q 1895.15 391.79 1897.08 406.51
  Q 1897.13 406.86 1896.78 406.83
  Q 1876.10 405.13 1856.12 403.56
  Q 1853.32 403.34 1850.32 403.59
  Q 1832.35 405.11 1814.18 406.82
  A 0.28 0.27 88.2 0 1 1813.88 406.53
  Q 1816.23 363.19 1818.12 317.02
  Q 1818.52 307.21 1818.60 296.87
  Q 1818.90 254.21 1819.13 212.78
  Q 1819.13 212.29 1818.64 212.28
  Q 1794.36 211.51 1771.27 210.78
  C 1721.41 209.21 1672.67 210.43 1622.32 212.37
  Z"
/>
<path fill="#ffffff" d="
  M 2072.83 182.30
  Q 2121.62 182.58 2166.90 180.70
  Q 2182.77 180.04 2199.31 178.41
  Q 2199.97 178.35 2199.79 178.99
  Q 2195.76 193.48 2197.56 208.95
  Q 2198.15 213.97 2199.80 218.29
  A 0.21 0.21 0.0 0 1 2199.59 218.57
  Q 2136.45 214.35 2072.56 214.71
  Q 2072.25 214.71 2072.25 215.03
  L 2072.25 370.70
  Q 2072.25 371.21 2072.75 371.20
  Q 2141.92 370.62 2212.88 367.06
  Q 2213.61 367.02 2213.32 367.69
  Q 2212.15 370.35 2211.68 373.13
  Q 2208.85 390.11 2213.23 406.22
  Q 2213.40 406.85 2212.74 406.81
  Q 2128.06 401.40 2041.38 404.58
  Q 2020.51 405.35 1994.83 406.79
  Q 1994.17 406.83 1994.20 406.17
  C 1997.84 328.39 1999.89 250.72 1999.45 172.73
  Q 1998.96 83.88 1994.34 11.57
  Q 1994.30 10.94 1994.93 10.98
  C 2042.84 13.62 2090.57 15.21 2136.02 13.68
  Q 2171.80 12.47 2209.39 10.90
  Q 2210.11 10.87 2209.91 11.56
  Q 2204.29 31.27 2209.72 50.16
  Q 2209.88 50.70 2209.32 50.67
  Q 2185.15 49.41 2159.19 48.07
  C 2130.33 46.58 2101.26 46.54 2072.56 46.71
  Q 2072.25 46.72 2072.25 47.03
  L 2072.25 181.72
  Q 2072.25 182.30 2072.83 182.30
  Z"
/>
<path fill="#ffffff" d="
  M 2330.71 133.37
  Q 2330.67 224.67 2332.53 317.20
  C 2333.12 346.86 2335.34 376.71 2337.77 406.39
  A 0.46 0.46 0.0 0 1 2337.25 406.88
  Q 2330.15 405.88 2322.23 404.52
  C 2314.79 403.25 2308.06 403.10 2300.44 404.28
  Q 2294.03 405.28 2288.22 406.70
  Q 2287.51 406.87 2287.56 406.14
  Q 2290.45 359.89 2292.88 314.33
  Q 2293.84 296.30 2293.92 275.01
  Q 2294.48 134.96 2292.86 11.61
  Q 2292.85 10.87 2293.58 10.97
  C 2302.50 12.17 2310.00 12.36 2319.78 10.98
  Q 2320.52 10.88 2321.03 11.42
  Q 2391.77 87.25 2464.58 158.02
  Q 2505.81 198.10 2562.17 252.04
  C 2574.36 263.72 2587.02 274.46 2599.96 284.67
  A 0.34 0.34 0.0 0 0 2600.51 284.40
  Q 2600.29 221.87 2600.42 159.91
  C 2600.52 110.45 2597.86 60.79 2593.33 11.63
  Q 2593.26 10.93 2593.95 11.08
  Q 2598.55 12.11 2602.76 12.90
  C 2616.21 15.41 2629.50 14.44 2642.83 11.06
  Q 2643.45 10.91 2643.41 11.54
  Q 2637.37 97.99 2637.09 186.76
  Q 2636.97 225.30 2637.52 265.62
  C 2637.89 292.97 2637.68 320.39 2637.65 347.50
  Q 2637.65 356.61 2637.90 366.74
  Q 2638.45 388.31 2638.23 409.13
  Q 2638.22 409.84 2637.53 409.71
  Q 2625.86 407.60 2614.66 409.72
  Q 2614.04 409.83 2613.61 409.38
  C 2523.47 313.56 2429.43 220.81 2331.22 133.14
  Q 2330.71 132.68 2330.71 133.37
  Z"
/>
<path fill="#a2d3b4" d="
  M 452.70 333.24
  Q 451.74 333.82 452.34 333.33
  L 363.60 299.52
  Q 363.11 299.34 362.70 299.67
  L 289.91 358.47
  A 0.97 0.97 0.0 0 1 288.55 358.33
  L 230.34 286.14
  A 2.87 2.60 64.8 0 0 227.79 285.08
  L 135.24 299.65
  L 120.10 202.98
  Q 120.02 202.48 120.36 202.11
  Q 121.97 200.35 124.24 198.52
  Q 196.72 140.17 268.73 81.73
  Q 268.87 81.62 269.04 81.67
  Q 272.91 82.92 276.46 84.35
  Q 284.03 87.38 290.99 90.02
  Q 318.34 100.40 342.30 109.78
  C 345.72 111.11 349.15 112.02 352.41 113.72
  Q 355.62 115.39 356.75 111.80
  C 357.81 108.44 358.88 105.06 360.35 101.86
  C 362.46 97.23 363.99 92.42 365.88 87.55
  Q 377.32 58.04 388.50 28.95
  Q 388.78 28.21 389.57 28.09
  L 486.23 12.86
  A 0.46 0.46 0.0 0 1 486.75 13.24
  L 501.81 109.81
  A 1.06 1.03 66.8 0 1 501.44 110.78
  L 431.33 167.55
  A 2.16 2.15 50.9 0 0 431.02 170.59
  Q 457.13 202.78 484.63 237.10
  Q 486.07 238.90 487.49 240.84
  A 0.95 0.94 -53.0 0 1 487.61 241.73
  Q 476.96 269.63 464.86 300.70
  Q 463.60 303.92 462.51 307.08
  C 461.33 310.49 459.70 313.64 458.54 317.03
  Q 455.89 324.79 452.50 332.26
  Q 452.30 332.71 452.70 333.24
  Z"
/>
<path fill="#487f59" d="
  M 452.34 333.33
  Q 451.06 334.15 451.17 335.17
  A 1.16 1.10 -39.6 0 1 451.10 335.74
  L 418.05 421.39
  A 2.70 2.68 7.5 0 1 415.81 423.10
  Q 409.29 423.76 402.42 425.00
  Q 397.96 425.81 393.81 426.23
  Q 389.89 426.64 385.53 427.65
  Q 381.64 428.55 377.44 428.84
  Q 374.76 429.03 372.19 429.65
  C 367.79 430.69 363.15 430.86 358.74 431.76
  Q 353.85 432.76 348.29 433.39
  Q 343.97 433.89 339.71 434.76
  Q 334.10 435.92 329.10 436.19
  C 327.31 436.29 326.10 437.32 324.30 437.06
  A 1.09 1.09 0.0 0 0 323.06 438.28
  Q 323.39 440.93 323.93 443.92
  Q 324.51 447.15 324.66 450.75
  Q 324.68 451.25 324.96 451.66
  Q 325.36 452.27 325.17 452.99
  Q 325.03 453.49 325.18 453.99
  C 325.52 455.06 325.91 455.88 326.03 457.03
  Q 326.79 464.07 328.03 470.84
  Q 328.90 475.67 329.51 480.63
  C 329.95 484.23 330.92 487.80 331.34 491.45
  Q 331.81 495.49 332.48 499.44
  Q 333.71 506.71 334.72 514.59
  C 334.84 515.48 335.32 516.27 335.43 517.14
  Q 336.32 524.33 337.44 531.50
  Q 337.52 532.02 337.11 532.35
  L 263.06 592.41
  Q 237.69 561.09 212.32 529.43
  Q 209.35 525.74 206.03 522.03
  C 204.93 520.81 204.35 518.53 202.23 519.28
  Q 201.15 519.65 200.03 519.79
  Q 191.89 520.80 189.75 521.19
  Q 179.98 522.96 176.34 523.35
  Q 174.87 523.50 171.85 524.13
  C 167.73 525.00 163.60 525.18 159.40 526.00
  Q 155.15 526.82 151.47 527.30
  C 145.55 528.06 139.64 529.37 133.88 530.04
  C 130.24 530.46 126.65 531.37 123.04 531.85
  Q 117.08 532.66 110.70 533.59
  A 0.81 0.81 0.0 0 1 109.77 532.76
  C 109.83 530.96 109.14 529.45 108.93 527.64
  Q 108.24 521.56 107.09 514.72
  Q 106.25 509.78 105.44 504.77
  Q 102.74 488.11 100.81 474.00
  C 100.44 471.30 99.58 468.71 99.24 465.94
  C 98.26 457.80 96.75 449.79 95.79 441.58
  A 2.61 2.60 -82.7 0 0 94.15 439.45
  Q 52.16 423.31 10.48 407.24
  Q 9.28 406.78 7.87 406.51
  A 1.12 1.12 0.0 0 1 7.03 405.01
  L 41.89 314.69
  A 1.53 1.53 0.0 0 1 43.01 313.74
  Q 47.75 312.77 52.39 312.28
  C 57.32 311.75 62.03 310.38 66.98 309.95
  Q 69.72 309.71 72.41 309.19
  Q 76.78 308.34 77.78 308.19
  Q 91.48 306.11 105.18 304.04
  C 106.40 303.86 107.34 303.29 108.50 303.20
  Q 113.07 302.87 117.69 301.97
  Q 122.05 301.12 125.86 300.64
  Q 130.55 300.05 135.24 299.65
  L 227.79 285.08
  A 2.87 2.60 64.8 0 1 230.34 286.14
  L 288.55 358.33
  A 0.97 0.97 0.0 0 0 289.91 358.47
  L 362.70 299.67
  Q 363.11 299.34 363.60 299.52
  L 452.34 333.33
  Z"
/>
<path fill="#efde7c" d="
  M 452.70 333.24
  L 544.14 368.77
  A 1.50 1.49 7.6 0 1 545.08 369.99
  C 545.33 372.15 545.96 374.18 546.17 376.36
  C 546.77 382.64 548.27 388.65 548.93 394.82
  C 549.34 398.75 550.29 402.55 550.86 406.41
  Q 552.81 419.58 554.84 433.07
  C 554.99 434.13 555.59 435.23 555.68 436.32
  C 556.17 442.48 557.49 448.16 558.20 453.94
  C 558.90 459.68 560.03 465.18 560.88 470.97
  Q 562.42 481.44 564.21 492.13
  Q 565.04 497.13 565.62 501.90
  C 566.15 506.35 567.24 510.57 567.83 514.89
  Q 569.39 526.18 571.35 537.78
  Q 572.24 543.07 572.95 548.20
  Q 573.67 553.45 574.92 558.59
  A 1.11 1.09 62.8 0 1 574.59 559.66
  Q 572.41 561.65 570.31 563.35
  Q 537.44 590.03 503.53 617.33
  A 1.50 1.49 51.1 0 0 503.31 619.44
  L 560.17 689.93
  Q 560.95 690.90 560.50 692.05
  L 525.22 783.54
  A 0.63 0.63 0.0 0 1 524.40 783.90
  Q 482.24 767.53 436.88 750.03
  Q 434.61 749.15 432.59 748.09
  Q 432.22 747.89 432.13 747.47
  C 430.67 739.87 429.76 732.24 428.45 724.57
  Q 426.83 715.09 425.65 706.61
  Q 424.96 701.69 424.10 696.92
  Q 423.22 692.09 422.59 687.24
  Q 422.13 683.72 421.42 680.06
  C 420.53 675.41 420.32 670.67 419.24 665.92
  Q 418.41 662.29 418.16 658.68
  C 417.85 654.31 413.66 656.61 411.42 656.86
  Q 407.64 657.30 403.64 657.94
  Q 384.07 661.05 367.03 663.68
  Q 357.16 665.21 347.27 666.82
  Q 336.46 668.58 325.78 669.90
  Q 325.28 669.96 324.97 669.57
  L 263.06 592.41
  L 337.11 532.35
  Q 337.52 532.02 337.44 531.50
  Q 336.32 524.33 335.43 517.14
  C 335.32 516.27 334.84 515.48 334.72 514.59
  Q 333.71 506.71 332.48 499.44
  Q 331.81 495.49 331.34 491.45
  C 330.92 487.80 329.95 484.23 329.51 480.63
  Q 328.90 475.67 328.03 470.84
  Q 326.79 464.07 326.03 457.03
  C 325.91 455.88 325.52 455.06 325.18 453.99
  Q 325.03 453.49 325.17 452.99
  Q 325.36 452.27 324.96 451.66
  Q 324.68 451.25 324.66 450.75
  Q 324.51 447.15 323.93 443.92
  Q 323.39 440.93 323.06 438.28
  A 1.09 1.09 0.0 0 1 324.30 437.06
  C 326.10 437.32 327.31 436.29 329.10 436.19
  Q 334.10 435.92 339.71 434.76
  Q 343.97 433.89 348.29 433.39
  Q 353.85 432.76 358.74 431.76
  C 363.15 430.86 367.79 430.69 372.19 429.65
  Q 374.76 429.03 377.44 428.84
  Q 381.64 428.55 385.53 427.65
  Q 389.89 426.64 393.81 426.23
  Q 397.96 425.81 402.42 425.00
  Q 409.29 423.76 415.81 423.10
  A 2.70 2.68 7.5 0 0 418.05 421.39
  L 451.10 335.74
  A 1.16 1.10 -39.6 0 0 451.17 335.17
  Q 451.06 334.15 452.34 333.33
  Q 451.74 333.82 452.70 333.24
  Z"
/>
<path fill="#ffffff" d="
  M 1987.49 751.39
  C 1985.38 755.27 1982.99 759.03 1980.11 762.37
  C 1958.60 787.27 1919.84 790.38 1893.26 771.12
  C 1873.95 757.12 1863.77 736.26 1861.01 712.68
  C 1857.82 685.40 1861.78 655.79 1878.61 634.12
  Q 1896.07 611.63 1922.91 607.65
  C 1940.78 605.01 1959.40 608.25 1973.37 619.66
  Q 1982.83 627.38 1987.05 637.67
  Q 1987.67 639.20 1987.68 637.55
  C 1987.98 598.97 1987.96 561.15 1986.41 522.16
  A 0.29 0.28 6.3 0 1 1986.77 521.88
  Q 2003.00 525.82 2019.86 521.80
  A 0.54 0.54 0.0 0 1 2020.52 522.35
  C 2016.76 605.58 2016.62 692.41 2018.28 777.95
  Q 2018.29 778.61 2017.64 778.46
  Q 2014.04 777.64 2010.52 777.11
  C 2002.83 775.95 1995.24 776.77 1987.64 778.50
  Q 1987.01 778.64 1987.06 778.00
  Q 1987.99 764.30 1988.01 751.53
  Q 1988.01 750.44 1987.49 751.39
  Z
  M 1977.06 644.35
  C 1965.63 627.34 1947.54 621.33 1928.15 625.90
  C 1905.90 631.15 1897.37 652.98 1894.88 673.37
  Q 1892.43 693.35 1894.64 712.85
  C 1897.16 735.02 1908.19 763.35 1933.99 765.95
  Q 1946.65 767.23 1958.05 762.31
  C 1989.59 748.72 1991.02 699.72 1987.25 671.69
  Q 1985.20 656.47 1977.06 644.35
  Z"
/>
<ellipse fill="#ffffff" cx="0.00" cy="0.00" transform="translate(2290.69,552.55) rotate(90.6)" rx="18.96" ry="17.77"/>
<ellipse fill="#ffffff" cx="0.00" cy="0.00" transform="translate(2091.26,552.80) rotate(90.5)" rx="18.96" ry="17.77"/>
<path fill="#ffffff" d="
  M 703.78 727.92
  C 717.78 749.75 739.08 764.75 764.50 767.10
  Q 817.01 771.94 848.74 732.33
  Q 849.22 731.74 849.91 732.05
  L 852.44 733.18
  A 0.87 0.87 0.0 0 1 852.93 734.15
  Q 850.25 747.22 849.48 761.11
  A 1.15 1.13 -14.5 0 1 848.95 761.99
  Q 822.95 778.20 792.88 782.58
  C 764.96 786.64 735.01 784.28 709.96 771.49
  C 686.70 759.61 668.70 739.05 658.82 715.12
  C 649.34 692.15 647.11 665.78 649.83 640.87
  C 654.70 596.30 680.02 559.91 722.79 544.81
  Q 739.02 539.07 759.17 537.49
  Q 808.26 533.64 853.79 554.96
  Q 854.39 555.24 854.17 555.86
  Q 848.48 571.93 846.57 589.49
  Q 846.51 590.02 845.99 590.02
  L 843.95 590.01
  Q 843.33 590.01 843.06 589.45
  C 836.66 575.96 824.90 567.02 811.37 560.54
  Q 787.86 549.26 760.48 552.57
  C 726.62 556.65 703.09 581.10 693.11 612.81
  Q 688.90 626.18 687.47 641.15
  C 684.65 670.54 687.86 703.11 703.78 727.92
  Z"
/>
<path fill="#ffffff" d="
  M 2200.07 628.72
  Q 2198.17 679.05 2198.59 729.75
  C 2198.67 739.31 2199.65 751.02 2204.69 759.15
  C 2211.54 770.21 2225.19 767.21 2235.63 765.21
  Q 2236.34 765.08 2236.26 765.79
  Q 2235.75 770.29 2236.29 774.35
  Q 2236.38 774.99 2235.80 775.28
  Q 2220.09 783.24 2201.94 781.02
  Q 2191.93 779.80 2184.05 773.37
  Q 2172.20 763.70 2170.31 748.79
  Q 2168.98 738.24 2169.22 728.76
  C 2170.07 695.54 2169.75 662.25 2169.76 629.05
  Q 2169.76 628.20 2168.91 628.25
  L 2144.23 629.67
  Q 2143.66 629.71 2143.74 629.14
  Q 2144.86 621.36 2143.72 613.08
  A 0.51 0.51 0.0 0 1 2144.29 612.51
  Q 2156.09 614.08 2169.45 614.19
  A 0.29 0.29 0.0 0 0 2169.74 613.90
  Q 2169.86 595.81 2169.14 576.21
  Q 2169.12 575.60 2169.71 575.43
  C 2181.09 572.23 2191.93 566.15 2201.82 559.81
  Q 2202.38 559.45 2202.34 560.11
  Q 2200.72 586.22 2200.12 613.47
  Q 2200.11 614.05 2200.68 614.05
  Q 2217.51 614.10 2234.70 612.37
  Q 2235.41 612.29 2235.31 613.00
  Q 2234.14 620.71 2235.27 628.66
  Q 2235.36 629.26 2234.75 629.24
  L 2200.58 628.24
  Q 2200.09 628.23 2200.07 628.72
  Z"
/>
<path fill="#ffffff" d="
  M 2608.14 623.77
  C 2600.72 620.17 2590.23 619.75 2581.85 621.54
  C 2571.96 623.64 2563.31 630.94 2561.61 641.25
  C 2558.38 660.71 2572.15 671.80 2589.03 676.49
  Q 2605.03 680.94 2618.57 686.30
  Q 2642.14 695.64 2644.12 721.62
  C 2645.07 734.05 2642.65 746.73 2635.83 757.13
  C 2621.70 778.64 2597.49 784.31 2573.01 782.44
  C 2558.74 781.35 2545.40 777.14 2533.89 768.62
  Q 2533.47 768.30 2533.68 767.82
  Q 2538.96 755.60 2540.73 741.03
  Q 2540.81 740.40 2541.42 740.25
  L 2544.22 739.52
  Q 2544.87 739.36 2545.09 739.99
  C 2552.01 759.98 2570.13 770.64 2590.91 768.65
  C 2603.52 767.44 2615.99 760.29 2618.55 747.09
  C 2621.00 734.45 2617.24 722.34 2604.81 716.77
  Q 2590.04 710.17 2573.11 704.50
  C 2556.46 698.93 2541.72 687.70 2537.93 670.05
  C 2534.47 653.91 2537.95 636.94 2548.86 624.26
  Q 2560.94 610.22 2581.54 607.48
  Q 2610.01 603.69 2635.94 617.97
  A 0.29 0.29 0.0 0 1 2636.08 618.33
  Q 2631.04 632.30 2629.71 646.63
  Q 2629.65 647.27 2629.01 647.27
  L 2626.00 647.27
  Q 2625.34 647.27 2625.19 646.63
  C 2622.93 636.35 2617.60 628.35 2608.14 623.77
  Z"
/>
<path fill="#ffffff" d="
  M 2383.85 693.90
  C 2383.95 715.87 2386.81 736.35 2402.24 752.03
  C 2412.88 762.84 2426.80 767.00 2442.04 766.19
  C 2462.71 765.09 2478.20 755.47 2489.95 738.54
  Q 2490.31 738.03 2490.91 738.19
  L 2493.59 738.92
  Q 2494.14 739.07 2494.03 739.63
  Q 2492.23 749.28 2491.96 759.09
  A 2.09 2.09 0.0 0 1 2491.35 760.49
  Q 2473.51 778.15 2446.07 781.65
  C 2411.85 786.02 2379.63 776.32 2362.19 744.68
  C 2355.06 731.73 2351.97 716.58 2351.37 701.30
  C 2350.51 679.31 2354.32 657.03 2366.68 638.64
  Q 2386.59 608.99 2425.13 607.33
  Q 2439.35 606.72 2451.69 609.57
  C 2492.08 618.91 2502.21 657.22 2500.95 693.22
  Q 2500.95 693.44 2500.72 693.44
  L 2384.21 693.53
  A 0.36 0.36 0.0 0 0 2383.85 693.90
  Z
  M 2384.24 678.69
  Q 2384.22 679.02 2384.55 679.02
  L 2468.17 678.87
  Q 2468.31 678.87 2468.31 678.73
  Q 2469.02 660.72 2463.41 644.94
  Q 2459.77 634.71 2452.25 628.48
  C 2442.61 620.49 2427.77 619.46 2416.21 622.92
  C 2392.75 629.94 2385.87 656.97 2384.24 678.69
  Z"
/>
<path fill="#ffffff" d="
  M 1759.97 608.64
  C 1776.63 610.67 1792.64 617.04 1804.75 628.53
  Q 1824.43 647.20 1828.87 675.43
  C 1832.74 699.98 1829.40 729.09 1814.08 750.07
  Q 1793.64 778.07 1758.73 782.91
  C 1741.11 785.35 1721.16 783.23 1705.43 775.82
  C 1678.66 763.20 1665.69 739.68 1662.72 711.06
  C 1660.36 688.23 1662.78 664.43 1674.37 645.32
  C 1693.00 614.60 1725.20 604.40 1759.97 608.64
  Z
  M 1697.11 671.07
  Q 1692.76 697.64 1697.92 723.81
  C 1703.47 751.91 1723.17 775.11 1754.53 769.04
  C 1776.11 764.86 1788.99 745.00 1793.92 724.17
  C 1797.34 709.72 1797.76 693.74 1796.20 678.95
  C 1792.94 647.90 1777.70 618.51 1741.47 621.85
  Q 1717.03 624.10 1705.39 646.27
  Q 1699.27 657.94 1697.11 671.07
  Z"
/>
<path fill="#ffffff" d="
  M 1413.20 638.72
  Q 1413.21 639.84 1413.78 638.88
  C 1426.70 617.20 1445.77 606.15 1471.26 608.82
  C 1490.34 610.81 1504.53 620.53 1511.76 639.06
  Q 1512.07 639.84 1512.47 639.10
  C 1522.26 621.29 1538.01 610.62 1558.65 608.67
  C 1571.79 607.42 1585.86 609.15 1596.91 616.22
  C 1613.16 626.60 1618.06 643.93 1617.80 662.48
  Q 1617.41 689.82 1617.20 716.68
  C 1617.04 737.40 1618.00 758.55 1619.11 778.44
  A 0.59 0.59 0.0 0 1 1618.39 779.04
  Q 1602.07 775.12 1585.94 778.97
  Q 1585.22 779.14 1585.28 778.41
  C 1588.20 743.80 1588.49 708.98 1588.12 674.45
  Q 1588.02 665.61 1586.07 655.92
  C 1582.60 638.76 1572.17 628.37 1553.55 628.82
  C 1538.17 629.20 1527.01 637.89 1521.57 651.98
  C 1514.34 670.67 1515.01 692.02 1515.47 712.25
  Q 1516.24 745.45 1517.93 778.89
  A 0.23 0.23 0.0 0 1 1517.64 779.13
  Q 1501.23 775.25 1484.68 778.97
  Q 1484.11 779.10 1484.15 778.51
  Q 1487.07 741.31 1486.58 693.51
  Q 1486.43 678.19 1484.71 661.80
  Q 1483.95 654.52 1481.95 648.33
  C 1478.49 637.62 1469.95 630.95 1458.72 629.41
  Q 1450.48 628.29 1443.63 629.90
  C 1429.93 633.12 1421.01 645.11 1417.36 658.32
  C 1415.54 664.87 1414.70 671.87 1414.43 678.71
  Q 1412.40 730.28 1416.63 778.66
  Q 1416.70 779.37 1416.00 779.22
  C 1405.11 776.91 1394.97 776.61 1383.70 779.32
  Q 1382.80 779.53 1382.83 778.61
  Q 1383.99 746.82 1384.66 711.30
  Q 1384.87 699.79 1384.68 686.39
  Q 1384.32 660.95 1382.53 610.26
  Q 1382.51 609.63 1383.13 609.71
  C 1389.22 610.45 1395.94 612.09 1402.04 611.35
  Q 1408.27 610.59 1414.65 609.59
  A 0.36 0.35 -0.1 0 1 1415.06 609.99
  Q 1413.10 624.14 1413.20 638.72
  Z"
/>
<path fill="#ffffff" d="
  M 883.05 713.04
  C 878.61 672.92 890.15 634.07 927.99 616.20
  Q 940.78 610.16 957.75 608.99
  C 976.47 607.71 995.47 610.56 1011.65 619.66
  C 1031.74 630.95 1045.23 652.35 1048.85 674.75
  C 1053.26 701.97 1049.54 731.79 1032.41 753.59
  C 1012.66 778.72 983.64 787.50 952.45 784.09
  C 921.49 780.71 896.63 762.63 887.19 732.73
  Q 884.16 723.13 883.05 713.04
  Z
  M 976.90 623.52
  Q 964.36 621.13 952.02 624.66
  C 913.31 635.73 911.73 694.94 918.38 725.73
  C 923.03 747.25 936.27 768.33 960.21 770.64
  C 997.08 774.20 1013.98 740.73 1016.67 709.74
  C 1019.26 679.80 1014.42 630.65 976.90 623.52
  Z"
/>
<path fill="#ffffff" d="
  M 1123.51 639.39
  C 1135.65 619.39 1152.43 607.92 1176.33 608.84
  C 1197.72 609.67 1213.54 619.20 1221.61 639.39
  Q 1221.91 640.14 1222.30 639.44
  Q 1238.18 611.21 1270.01 608.91
  C 1292.82 607.26 1314.60 614.73 1323.51 636.92
  Q 1327.62 647.15 1327.55 658.89
  Q 1327.41 684.27 1327.06 709.76
  Q 1326.69 737.07 1328.96 778.75
  Q 1329.00 779.48 1328.28 779.33
  C 1317.25 777.07 1306.93 776.65 1295.67 779.37
  Q 1295.06 779.52 1295.11 778.89
  C 1298.00 742.76 1298.60 704.70 1297.83 672.15
  Q 1297.61 663.00 1295.15 653.24
  C 1290.90 636.40 1278.83 628.10 1261.58 629.28
  C 1229.31 631.49 1224.91 668.58 1225.13 693.51
  Q 1225.52 737.22 1227.79 778.93
  Q 1227.83 779.58 1227.19 779.43
  Q 1210.48 775.57 1194.52 779.35
  Q 1193.96 779.49 1194.00 778.91
  Q 1197.10 736.08 1196.36 692.01
  Q 1196.08 675.36 1194.32 660.20
  C 1192.71 646.38 1187.20 634.48 1172.72 630.64
  C 1149.31 624.43 1131.66 638.81 1126.58 661.01
  Q 1124.63 669.52 1124.29 678.26
  Q 1122.26 729.46 1126.46 779.41
  A 0.26 0.26 0.0 0 1 1126.14 779.68
  Q 1109.79 775.73 1093.36 779.71
  Q 1092.66 779.88 1092.68 779.16
  Q 1093.71 749.65 1094.36 719.46
  C 1095.14 682.99 1093.59 647.17 1092.40 610.31
  A 0.28 0.28 0.0 0 1 1092.71 610.02
  C 1099.06 610.82 1106.09 612.55 1112.51 611.64
  Q 1118.53 610.79 1124.36 610.00
  Q 1124.92 609.92 1124.85 610.48
  Q 1123.04 624.10 1122.97 639.23
  Q 1122.96 640.30 1123.51 639.39
  Z"
/>
<path fill="#ffffff" d="
  M 2273.53 610.00
  Q 2290.24 613.91 2305.84 609.94
  A 0.22 0.22 0.0 0 1 2306.11 610.16
  Q 2304.15 654.48 2304.22 696.46
  C 2304.26 723.37 2305.44 750.38 2306.51 777.47
  Q 2306.53 778.11 2305.91 777.96
  Q 2290.60 774.27 2274.13 778.09
  Q 2273.60 778.21 2273.62 777.67
  C 2276.30 721.63 2276.84 666.53 2273.35 610.14
  A 0.14 0.14 0.0 0 1 2273.53 610.00
  Z"
/>
<path fill="#ffffff" d="
  M 2074.19 778.26
  C 2076.81 721.30 2077.40 664.83 2073.96 610.85
  Q 2073.92 610.21 2074.54 610.36
  Q 2090.19 614.08 2106.10 610.30
  Q 2106.71 610.15 2106.68 610.77
  Q 2104.49 658.44 2104.86 704.19
  Q 2105.05 727.83 2107.12 777.67
  Q 2107.15 778.40 2106.44 778.22
  Q 2091.06 774.48 2074.36 778.40
  A 0.14 0.13 83.9 0 1 2074.19 778.26
  Z"
/>
</svg>
