<?xml version="1.0" encoding="UTF-8" standalone="no"?>
<svg
   version="1.1"
   viewBox="0 0 961 961"
   id="svg23"
   sodipodi:docname="Logo-Final Vector Symbol.svg"
   inkscape:export-filename="../../../../../../../../Downloads/1200x1200 Logo Symbol White Background.png"
   inkscape:export-xdpi="96"
   inkscape:export-ydpi="96"
   width="961"
   height="961"
   inkscape:version="1.4 (e7c3feb1, 2024-10-09)"
   xml:space="preserve"
   xmlns:inkscape="http://www.inkscape.org/namespaces/inkscape"
   xmlns:sodipodi="http://sodipodi.sourceforge.net/DTD/sodipodi-0.dtd"
   xmlns="http://www.w3.org/2000/svg"
   xmlns:svg="http://www.w3.org/2000/svg"><defs
     id="defs23" /><sodipodi:namedview
     id="namedview23"
     pagecolor="#ffffff"
     bordercolor="#000000"
     borderopacity="0.25"
     inkscape:showpageshadow="2"
     inkscape:pageopacity="0.0"
     inkscape:pagecheckerboard="0"
     inkscape:deskcolor="#d1d1d1"
     inkscape:export-bgcolor="#ffffffff"
     inkscape:zoom="0.21010939"
     inkscape:cx="847.17775"
     inkscape:cy="397.41203"
     inkscape:window-width="1416"
     inkscape:window-height="808"
     inkscape:window-x="13"
     inkscape:window-y="39"
     inkscape:window-maximized="0"
     inkscape:current-layer="svg23" /><g
     stroke-width="2"
     fill="none"
     stroke-linecap="butt"
     id="g3"
     transform="matrix(1.2848987,0,0,1.2036873,88.447203,2.1409832)"><path
       stroke="#c9d998"
       vector-effect="non-scaling-stroke"
       d="m 452.7,333.24 q -0.96,0.58 -0.36,0.09"
       id="path1" /><path
       stroke="#75a987"
       vector-effect="non-scaling-stroke"
       d="M 452.34,333.33 363.6,299.52 q -0.49,-0.18 -0.9,0.15 l -72.79,58.8 a 0.97,0.97 0 0 1 -1.36,-0.14 l -58.28,-72.29 a 2.67,2.64 65.9 0 0 -2.48,-0.96 l -92.55,14.57"
       id="path2" /><path
       stroke="#9caf6b"
       vector-effect="non-scaling-stroke"
       d="m 452.34,333.33 q -1.28,0.82 -1.17,1.84 a 1.16,1.1 -39.6 0 1 -0.07,0.57 l -33.04,85.64 a 2.71,2.71 0 0 1 -2.25,1.72 q -6.52,0.66 -13.39,1.9 -4.46,0.81 -8.61,1.23 -3.92,0.41 -8.28,1.42 -3.89,0.9 -8.09,1.19 -2.68,0.19 -5.25,0.81 c -4.4,1.04 -9.04,1.21 -13.45,2.11 q -4.89,1 -10.45,1.63 -4.32,0.5 -8.58,1.37 -5.61,1.16 -10.61,1.43 c -1.79,0.1 -3,1.13 -4.8,0.87 a 1.09,1.09 0 0 0 -1.24,1.22 q 0.33,2.65 0.87,5.64 0.58,3.23 0.73,6.83 0.02,0.5 0.3,0.91 0.4,0.61 0.21,1.33 -0.14,0.5 0.01,1 c 0.34,1.07 0.73,1.89 0.85,3.04 q 0.76,7.04 2,13.81 0.87,4.83 1.48,9.79 c 0.44,3.6 1.41,7.17 1.83,10.82 q 0.47,4.04 1.14,7.99 1.23,7.27 2.24,15.15 c 0.12,0.89 0.6,1.68 0.71,2.55 q 0.89,7.19 2.01,14.36 0.08,0.52 -0.33,0.85 l -74.05,60.06"
       id="path3" /></g><path
     fill="#a2d3b4"
     d="m 670.12083,403.25775 q -1.23351,0.69814 -0.46257,0.10833 l -114.0219,-40.69667 q -0.62961,-0.21665 -1.15641,0.18055 l -93.52778,70.77682 a 1.2463516,1.1675767 0 0 1 -1.74746,-0.16852 l -74.88388,-87.01455 a 3.3995691,3.2068147 4.1464234 0 0 -3.18656,-1.15554 L 262.2169,362.82589 242.76354,246.46545 q -0.10276,-0.60186 0.33407,-1.04721 2.06869,-2.1185 4.98541,-4.32124 93.12945,-70.23517 185.655,-140.57865 0.17988,-0.1324 0.39832,-0.0722 4.97256,1.50462 9.53395,3.22587 9.72669,3.64719 18.66958,6.82492 35.14198,12.49426 65.92814,23.78486 c 4.39436,1.60091 8.80156,2.69626 12.99033,4.74253 q 4.12453,2.01016 5.57646,-2.31107 c 1.362,-4.0444 2.73683,-8.11286 4.62563,-11.96465 2.71114,-5.57309 4.67703,-11.36282 7.1055,-17.22478 q 14.69924,-35.520827 29.0644,-70.536077 0.35977,-0.89073 1.37485,-1.03518 l 124.1983,-18.33215 a 0.59105337,0.55369615 0 0 1 0.66815,0.4574 l 19.35056,116.240097 a 1.3323711,1.2673612 12.275753 0 1 -0.47541,1.16758 l -90.08424,68.33333 a 2.7678575,2.5949621 2.01771 0 0 -0.39832,3.65919 q 33.5487,38.7467 68.88342,80.05724 1.85025,2.16664 3.67481,4.50179 a 1.1386588,1.212943 85.371833 0 1 0.15419,1.07129 q -13.68418,33.58287 -29.23145,70.98144 -1.61897,3.87587 -3.01951,7.67952 c -1.51618,4.10458 -3.61057,7.89619 -5.10105,11.9767 q -3.40498,9.34061 -7.76078,18.33215 -0.25699,0.54165 0.25698,1.17961 z"
     id="path10"
     style="stroke-width:1.24362" /><path
     fill="#487f59"
     d="m 669.65826,403.36608 q -1.64467,0.98703 -1.50333,2.21479 a 1.3419314,1.4706282 72.655211 0 1 -0.0899,0.6861 l -42.45305,103.08378 a 3.4820753,3.2619925 0 0 1 -2.89102,2.07035 q -8.37754,0.79443 -17.2048,2.287 -5.73065,0.97499 -11.06297,1.48054 -5.03681,0.49351 -10.63896,1.70923 -4.99826,1.08332 -10.39483,1.43239 -3.44353,0.22869 -6.74572,0.97498 c -5.65355,1.25184 -11.61548,1.45647 -17.28189,2.53978 q -6.28315,1.20369 -13.42719,1.96201 -5.55077,0.60186 -11.02443,1.64906 -7.20828,1.39628 -13.63278,1.72127 c -2.29996,0.12037 -3.85469,1.36016 -6.1675,1.04721 a 1.4005395,1.3120192 0 0 0 -1.59328,1.4685 q 0.42401,3.18977 1.11786,6.78879 0.74524,3.88791 0.93798,8.22119 0.0257,0.60184 0.38547,1.09534 0.51395,0.73426 0.26983,1.60092 -0.17989,0.60184 0.0129,1.20369 c 0.43686,1.28794 0.93797,2.27497 1.09216,3.6592 q 0.97653,8.47397 2.5698,16.62292 1.11786,5.81382 1.90165,11.7841 c 0.56536,4.33328 1.8117,8.63044 2.35136,13.02391 q 0.6039,4.86289 1.46478,9.61746 1.58043,8.75081 2.87818,18.23585 c 0.15419,1.07129 0.77093,2.0222 0.91228,3.06941 q 1.14356,8.65451 2.58264,17.28494 0.10276,0.62592 -0.42401,1.02314 l -95.14674,72.29346 q -32.59788,-37.69949 -65.19577,-75.80823 -3.81614,-4.4416 -8.08201,-8.90728 c -1.41339,-1.46849 -2.15863,-4.2129 -4.88261,-3.31014 q -1.38769,0.44537 -2.82678,0.61388 -10.45907,1.21572 -13.20876,1.68515 -12.55346,2.13054 -17.23049,2.59997 -1.8888,0.18056 -5.76919,0.93888 c -5.29379,1.0472 -10.60041,1.26388 -15.99699,2.2509 q -5.46082,0.98702 -10.18925,1.56479 c -7.60659,0.91479 -15.20035,2.49163 -22.60136,3.2981 -4.67703,0.50556 -9.28982,1.60091 -13.9283,2.17868 q -7.658,0.97498 -15.85565,2.0944 a 1.0407679,0.97498671 0 0 1 -1.19496,-0.99906 c 0.0771,-2.16663 -0.80949,-3.9842 -1.07932,-6.16286 q -0.88657,-7.31843 -2.36421,-15.55164 -1.07931,-5.94623 -2.12008,-11.97669 -3.46922,-20.05343 -5.94908,-37.03746 c -0.47541,-3.24996 -1.58042,-6.36751 -2.01729,-9.70172 -1.2592,-9.79802 -3.1994,-19.43955 -4.43291,-29.32183 a 3.1414172,3.3409562 89.550128 0 0 -2.10722,-2.56386 q -53.9529,-19.4275 -107.50749,-38.77075 -1.54187,-0.55371 -3.353577,-0.8787 a 1.4390865,1.3481298 0 0 1 -1.07931,-1.80553 L 142.27171,380.92935 a 1.9658949,1.8416416 0 0 1 1.43909,-1.14349 q 6.09041,-1.16759 12.05235,-1.75739 c 6.33455,-0.63795 12.38642,-2.28701 18.74667,-2.80459 q 3.52062,-0.28889 6.977,-0.91481 5.615,-1.02314 6.89991,-1.20368 17.6031,-2.50368 35.20621,-4.9953 c 1.56759,-0.21667 2.77539,-0.90278 4.26587,-1.0111 q 5.87199,-0.39722 11.80822,-1.48054 5.60215,-1.02314 10.49762,-1.60091 6.02617,-0.71017 12.05234,-1.19165 l 118.91737,-17.53772 a 3.3995691,3.2068147 4.1464234 0 1 3.18656,1.15554 l 74.88389,87.01455 a 1.2463516,1.1675767 0 0 0 1.74745,0.16852 l 93.52778,-70.77682 q 0.52681,-0.3972 1.15641,-0.18055 z"
     id="path11"
     style="stroke-width:1.24362" /><path
     fill="#efde7c"
     d="m 670.12083,403.25775 117.49112,42.76702 a 1.9271431,1.7936847 0.69954981 0 1 1.20781,1.46849 c 0.32123,2.59997 1.13071,5.04344 1.40053,7.66748 0.77095,7.55917 2.6983,14.79333 3.54633,22.22008 0.52681,4.73048 1.74746,9.3045 2.47985,13.95073 q 2.50556,15.85256 5.1139,32.09031 c 0.19273,1.27591 0.96367,2.59996 1.07932,3.91198 0.62959,7.41472 2.32566,14.25165 3.23794,21.20896 0.89943,6.90917 2.35136,13.52945 3.44353,20.49881 q 1.97874,12.6026 4.27871,25.47002 1.06646,6.01843 1.8117,11.76002 c 0.681,5.35641 2.08154,10.43597 2.83963,15.6359 q 2.00445,13.58962 4.52285,27.5524 1.14356,6.36751 2.05583,12.54243 0.92513,6.31935 2.53125,12.5063 a 1.4072524,1.3297195 7.5572718 0 1 -0.42401,1.28795 q -2.80108,2.39534 -5.49937,4.44161 -42.23462,32.11438 -85.80553,64.97504 a 1.9198763,1.8004738 2.9199879 0 0 -0.28267,2.53977 l 73.05933,84.84793 q 1.00222,1.1676 0.42402,2.5518 l -45.33123,110.12535 a 0.80948614,0.758323 0 0 1 -1.05362,0.4333 q -54.17132,-19.7044 -112.45432,-40.7689 -2.91672,-1.0592 -5.51222,-2.3351 -0.47541,-0.2408 -0.59105,-0.7463 c -1.87596,-9.148 -3.04521,-18.3322 -4.72842,-27.5644 q -2.08154,-11.411 -3.59772,-21.61825 -0.88659,-5.9221 -1.9916,-11.6637 -1.13071,-5.8138 -1.9402,-11.6517 -0.59104,-4.237 -1.50333,-8.6425 c -1.14355,-5.59714 -1.41339,-11.30262 -2.80108,-17.02014 q -1.06646,-4.36937 -1.38768,-8.71469 c -0.39832,-5.26012 -5.78205,-2.49163 -8.66022,-2.19071 q -4.85692,0.52963 -9.99651,1.29998 -25.14547,3.74346 -47.04014,6.90916 -12.68195,1.84165 -25.3896,3.77958 -13.88975,2.1185 -27.61247,3.70736 -0.64245,0.0722 -1.04077,-0.39722 l -79.54807,-92.87651 95.14674,-72.29346 q 0.52681,-0.39722 0.42401,-1.02314 -1.43908,-8.63043 -2.58264,-17.28494 c -0.14134,-1.04721 -0.75809,-1.99812 -0.91227,-3.06941 q -1.29776,-9.48504 -2.87818,-18.23585 -0.86088,-4.75457 -1.46478,-9.61746 c -0.53966,-4.39347 -1.78601,-8.69063 -2.35136,-13.02391 q -0.7838,-5.97028 -1.90166,-11.7841 -1.59327,-8.14895 -2.5698,-16.62292 c -0.15418,-1.38423 -0.65529,-2.37126 -1.09216,-3.6592 q -0.19273,-0.60185 -0.0129,-1.20369 0.24413,-0.86666 -0.26982,-1.60092 -0.35978,-0.4935 -0.38547,-1.09534 -0.19274,-4.33328 -0.93798,-8.22119 -0.69385,-3.59902 -1.11786,-6.78879 a 1.4005395,1.3120192 0 0 1 1.59327,-1.4685 c 2.31282,0.31295 3.86755,-0.92684 6.16751,-1.04721 q 6.4245,-0.32499 13.63277,-1.72127 5.47367,-1.0472 11.02443,-1.64906 7.14405,-0.75832 13.4272,-1.96201 c 5.6664,-1.08331 11.62833,-1.28794 17.28189,-2.53978 q 3.30219,-0.74629 6.74571,-0.97498 5.39658,-0.34907 10.39483,-1.43239 5.60216,-1.21572 10.63896,-1.70923 5.33233,-0.50555 11.06298,-1.48054 8.82726,-1.49257 17.20479,-2.287 a 3.4820753,3.2619925 0 0 0 2.89102,-2.07035 l 42.45306,-103.08378 a 1.3419314,1.4706282 72.655211 0 0 0.0899,-0.6861 q -0.14135,-1.22776 1.50333,-2.21479 -0.77094,0.58981 0.46256,-0.10833 z"
     id="path12"
     style="stroke-width:1.24362" /></svg>
