<?xml version="1.0" encoding="UTF-8" standalone="no"?>
<svg
   width="94.394463"
   height="94.87484"
   viewBox="0 0 94.394463 94.87484"
   version="1.1"
   id="svg1"
   sodipodi:docname="coresync-circlev1.svg"
   inkscape:export-filename="coresync-circlev1-wtback.svg"
   inkscape:export-xdpi="2034.0176"
   inkscape:export-ydpi="2034.0176"
   inkscape:version="1.4 (e7c3feb1, 2024-10-09)"
   xmlns:inkscape="http://www.inkscape.org/namespaces/inkscape"
   xmlns:sodipodi="http://sodipodi.sourceforge.net/DTD/sodipodi-0.dtd"
   xmlns="http://www.w3.org/2000/svg"
   xmlns:svg="http://www.w3.org/2000/svg">
  <defs
     id="defs1">
    <linearGradient
       id="swatch62"
       inkscape:swatch="solid">
      <stop
         style="stop-color:#000000;stop-opacity:1;"
         offset="0"
         id="stop62" />
    </linearGradient>
    <linearGradient
       id="swatch27"
       inkscape:swatch="solid">
      <stop
         style="stop-color:#000000;stop-opacity:1;"
         offset="0"
         id="stop27" />
    </linearGradient>
    <linearGradient
       id="swatch17"
       inkscape:swatch="solid">
      <stop
         style="stop-color:#000000;stop-opacity:1;"
         offset="0"
         id="stop17" />
    </linearGradient>
  </defs>
  <sodipodi:namedview
     id="namedview1"
     pagecolor="#ffffff"
     bordercolor="#000000"
     borderopacity="0.20392157"
     inkscape:showpageshadow="2"
     inkscape:pageopacity="0.0"
     inkscape:pagecheckerboard="0"
     inkscape:deskcolor="#d1d1d1"
     inkscape:zoom="20.687755"
     inkscape:cx="93.557759"
     inkscape:cy="40.36204"
     inkscape:window-width="1712"
     inkscape:window-height="1069"
     inkscape:window-x="0"
     inkscape:window-y="38"
     inkscape:window-maximized="0"
     inkscape:current-layer="svg1"
     inkscape:export-bgcolor="#ffffff00">
    <inkscape:page
       x="0"
       y="0"
       width="94.394463"
       height="94.87484"
       id="page2"
       margin="0"
       bleed="0" />
  </sodipodi:namedview>
  <path
     style="mix-blend-mode:normal;fill:#89b09f;fill-opacity:1;stroke:#000000;stroke-width:0.160903;stroke-dasharray:none;stroke-opacity:0"
     d="m 65.453578,86.354937 c -1.956488,-0.244049 -3.390389,-0.588882 -5.403242,-1.590602 -2.329748,-1.159426 -4.197158,-2.459192 -6.239715,-4.484886 -1.834161,-1.819018 -3.235887,-3.812896 -4.142325,-5.64636 -4.026567,-8.144588 3.87439,-2.651507 13.957588,-12.686998 6.938958,-6.906126 11.785863,-17.215949 13.3791,-29.168476 0.397341,-2.980863 0.481462,-9.222631 0.159683,-11.848418 -0.54204,-4.423168 -1.543302,-8.215482 -3.05709,-11.5788409 -0.327235,-0.727054 -0.906502,-1.739884 -0.859289,-1.787096 0.314122,-0.314124 4.305551,3.1620279 7.627848,6.5688409 5.705349,5.850487 8.540454,10.239698 10.725482,16.604811 1.81531,5.288112 2.70843,10.228353 2.71238,16.310056 0.005,7.45178 -1.46571,14.346712 -4.233318,20.826328 -2.092279,4.898506 -4.394506,8.720009 -7.702135,12.011322 -3.539705,3.522244 -7.284776,5.566935 -11.335066,6.335263 -1.565417,0.296953 -4.175468,0.311492 -5.589901,0.135056 z"
     id="path68"
     sodipodi:nodetypes="ssssssssssssssss" />
  <path
     style="mix-blend-mode:normal;fill:#668a84;fill-opacity:1;stroke:#000000;stroke-width:0.160903;stroke-dasharray:none;stroke-opacity:0"
     d="M 69.673438,48.493821 C 69.302893,45.00885 68.932926,42.407866 67.747944,39.613579 59.951997,21.230091 39.231315,18.182856 28.237021,17.917868 c -6.750557,-0.162704 -11.272023,0.249773 -17.507245,2.341945 -1.8090515,0.607013 -3.6996365,1.26467 -3.7356615,1.228645 -0.07902,-0.07902 2.549595,-3.254131 4.0972945,-5.125364 7.302249,-8.8287269 18.489772,-14.6275899 30.932113,-16.03313617 2.945732,-0.332764 7.950708,-0.3320662 10.777092,0.0015 4.965675,0.5860468 10.411223,2.03405927 13.988689,3.71970027 3.77683,1.779577 7.002995,8.9345929 8.015322,17.7764519 0.264848,2.313239 0.237871,7.765826 0.0089,9.822233 -0.619951,5.567774 -2.544543,12.877075 -4.162596,16.12612 -0.549419,1.103231 -0.862323,1.800975 -0.918299,1.274517 l -0.05919,-0.556659 z"
     id="path69"
     sodipodi:nodetypes="sssssssssssssss" />
  <path
     style="mix-blend-mode:normal;fill:#dfd7c6;fill-opacity:1;stroke:#000000;stroke-width:0.160903;stroke-dasharray:none;stroke-opacity:0"
     d="m 0.64075057,55.796973 c -0.5790219,-3.381231 -0.736807,-9.323208 -0.341397,-12.856567 0.634395,-5.668912 1.99065193,-10.920825 3.78401793,-14.653068 0.60772,-1.26475 0.791387,-2.016542 1.616896,-2.8273 2.793935,-2.744007 8.1785305,-4.337292 15.3562905,-5.159017 2.446089,-0.280033 8.77553,-0.413318 11.500862,-0.09656 4.233551,0.492057 7.78508,1.38541 11.321894,2.59753 2.222216,0.761586 6.081425,2.374621 5.897681,2.539573 -0.06457,0.05797 -2.164412,0.152632 -4.113081,0.289404 -4.110453,0.288501 -7.416381,0.769331 -10.406555,1.513579 -9.081571,2.260382 -16.71141,6.535048 -23.1101,12.947581 C 8.1138215,44.13429 5.0692505,48.504589 1.7657485,54.994161 0.78798557,56.91493 0.82738257,56.886815 0.64075057,55.796971 Z"
     id="path70"
     sodipodi:nodetypes="ssssssssssssss" />
  <path
     style="mix-blend-mode:normal;fill:#b09763;fill-opacity:1;stroke:#000000;stroke-width:0.16708;stroke-dasharray:none;stroke-opacity:0"
     d="M 44.304958,94.72033 C 39.348604,94.47597 35.863929,93.78043 31.548309,92.17413 18.716582,87.39807 7.9560005,77.204201 3.2444625,65.360919 c -0.623531,-1.567354 -0.753589,-2.074732 -0.813069,-3.17192 -0.170825,-3.151089 1.22902,-6.929677 4.234534,-11.430238 1.787216,-2.676241 3.3919335,-4.625016 6.0757915,-7.378469 4.378404,-4.491939 9.210944,-8.138654 13.960584,-10.534887 1.375639,-0.694022 5.438247,-2.418475 5.697883,-2.418475 0.07679,0 -0.739438,0.72558 -1.28661,1.38833 -7.353248,8.906473 -6.051528,20.394778 -4.47655,26.808285 2.930039,12.040477 10.865909,23.588527 20.622127,30.329348 1.899265,1.312252 4.358118,2.674997 6.397985,3.545887 3.071644,1.3114 3.345256,1.18048 3.06768,1.33582 -0.422396,0.23638 -3.302604,0.6712 -5.578567,0.83302 -2.018984,0.14356 -4.596015,0.16341 -6.841293,0.0527 -3e-6,0 3e-6,1e-5 0,1e-5 z"
     id="path72"
     sodipodi:nodetypes="ssssssssssssssss" />
</svg>
